HIERARCHY
ROOT ui
{
	 OFFSET 0 0 0
	 CHANNELS 3 XPosition YPosition Z Position
	 EndSite
	 {
	 OFFSET 0 -1 0
	 }
}
ROOT li
{
	 OFFSET 0 0 0
	 CHANNELS 3 XPosition YPosition Z Position
	 EndSite
	 {
	 OFFSET 0 -1 0
	 }
}
ROOT ul
{
	 OFFSET 0 0 0
	 CHANNELS 3 XPosition YPosition Z Position
	 EndSite
	 {
	 OFFSET 0 -1 0
	 }
}
ROOT ll
{
	 OFFSET 0 0 0
	 CHANNELS 3 XPosition YPosition Z Position
	 EndSite
	 {
	 OFFSET 0 -1 0
	 }
}
ROOT tt
{
	 OFFSET 0 0 0
	 CHANNELS 3 XPosition YPosition Z Position
	 EndSite
	 {
	 OFFSET 0 -1 0
	 }
}
ROOT tb
{
	 OFFSET 0 0 0
	 CHANNELS 3 XPosition YPosition Z Position
	 EndSite
	 {
	 OFFSET 0 -1 0
	 }
}
ROOT td
{
	 OFFSET 0 0 0
	 CHANNELS 3 XPosition YPosition Z Position
	 EndSite
	 {
	 OFFSET 0 -1 0
	 }
}
ROOT v
{
	 OFFSET 0 0 0
	 CHANNELS 3 XPosition YPosition Z Position
	 EndSite
	 {
	 OFFSET 0 -1 0
	 }
}
ROOT bn
{
	 OFFSET 0 0 0
	 CHANNELS 3 XPosition YPosition Z Position
	 EndSite
	 {
	 OFFSET 0 -1 0
	 }
}
MOTION
Frames: 27
Frame Time: 0.002
0.01305611801147461	0.0016484999656677247	0		0.5302258911132812	-2.409087646484375	0		-0.9267615356445312	0.1592645721435547	0		-0.6251625366210938	-2.28935595703125	0		2.02640234375	-1.025593017578125	0		3.657031982421875	-0.5101349792480468	0		4.89356396484375	-0.2750035095214844	0		5.99483935546875	0.4271340637207031	0		0.0010496900081634522	5.9444443359375	0		
-0.021943822860717773	0.0033235859870910643	0		0.4970546264648438	-2.413458984375	0		-0.9318316650390625	0.15553779602050782	0		-0.5855113525390625	-2.30674462890625	0		2.026739013671875	-1.067505859375	0		3.657546142578125	-0.5411057739257813	0		4.89556494140625	-0.273035400390625	0		5.9948359375	0.4270929870605469	0		-0.013933712005615235	5.9328310546875	0		
0.008952096939086914	-0.0019563219547271728	0		0.5396319580078125	-2.4349296875	0		-0.9318544311523438	0.155739990234375	0		-0.6266451416015625	-2.307958251953125	0		2.0272806396484375	-1.0944189453125	0		3.66841064453125	-0.5472237548828125	0		4.89552685546875	-0.27303744506835936	0		5.98970703125	0.4191259765625	0		-0.013753990173339843	5.93300146484375	0		
-0.018064428329467773	-3.9276400208473205E-4	0		0.5105150451660156	-2.434355712890625	0		-0.9318828125	0.15594337463378907	0		-0.5771303100585937	-2.333491943359375	0		2.042652587890625	-1.1325494384765624	0		3.684166259765625	-0.560414794921875	0		4.906482421875	-0.27320037841796874	0		5.99480419921875	0.427010986328125	0		-0.04667671585083008	5.92665380859375	0		
0.056936725616455075	0.0016823010444641114	0		0.5103936767578126	-2.434203369140625	0		-0.9939783325195313	0.1520535888671875	0		-0.6412850952148438	-2.335365234375	0		2.06107861328125	-1.1667255859375	0		3.6661865234375	-0.5551129760742187	0		4.9046572265625	-0.25817691040039065	0		5.9996669921875	0.4188958435058594	0		0.018901885986328124	5.95387353515625	0		
0.012908720970153808	0.002494697093963623	0		0.517126708984375	-2.444153076171875	0		-0.9268810424804688	0.16027674865722658	0		-0.5745842895507812	-2.34815234375	0		2.070549072265625	-1.1977723388671875	0		3.682795166015625	-0.578320556640625	0		4.9156142578125	-0.2583433532714844	0		5.9996494140625	0.4188514099121094	0		0.004892971992492676	5.9412490234375	0		
0.004773366928100586	-0.004219188213348389	0		0.5129329223632813	-2.44894384765625	0		-1.0109585571289061	0.15771197509765625	0		-0.6478699951171875	-2.358890380859375	0		2.089956787109375	-1.2329677734375	0		3.701753662109375	-0.577562744140625	0		4.9265703125	-0.258511962890625	0		5.994513671875	0.4108798828125	0		-0.010088374137878418	5.930638671875	0		
0.00877512264251709	-0.0011128189563751221	0		0.5336693725585937	-2.4581044921875	0		-0.9411200561523437	0.14888421630859375	0		-0.59308984375	-2.365510498046875	0		2.097355224609375	-1.267990234375	0		3.66837109375	-0.5990404052734375	0		4.92651904296875	-0.258521240234375	0		5.9954716796875	0.40981805419921874	0		-0.009919511795043945	5.9308046875	0		
-0.021325931549072266	-0.003507771015167236	0		0.48643939208984377	-2.463266845703125	0		-1.0652203369140625	0.14690965270996093	0		-0.6534921875	-2.38243994140625	0		2.107777099609375	-1.300060546875	0		3.6792001953125	-0.6051687622070312	0		4.93743408203125	-0.2596944885253906	0		5.9813095703125	0.4019767761230469	0		0.00637511920928955	5.94073046875	0		
-0.018355066299438477	6.071439981460571E-4	0		0.5241434936523437	-2.471685791015625	0		-1.0043245849609375	0.14520367431640624	0		-0.6478409423828125	-2.394345703125	0		2.089365234375	-1.31870654296875	0		3.69394189453125	-0.6153584594726562	0		4.94527734375	-0.26382501220703125	0		5.9912197265625	0.40078005981445314	0		0.02461012077331543	5.9486220703125	0		
-0.014433535575866699	0.003703903913497925	0		0.5150559692382812	-2.46341552734375	0		-0.9413749389648437	0.1494594268798828	0		-0.5812306518554687	-2.40715966796875	0		2.139732421875	-1.350374755859375	0		3.70693017578125	-0.6065227661132813	0		4.956396484375	-0.2470033721923828	0		5.9862451171875	0.4098039245605469	0		-0.006631540775299072	5.92723876953125	0		
0.008344267845153809	-4.8414701223373414E-4	0		0.5704796142578125	-2.486109619140625	0		-0.9516480102539062	0.14179328918457032	0		-0.5946637573242187	-2.419792724609375	0		2.135215087890625	-1.371232421875	0		3.679306884765625	-0.6360904541015625	0		4.95622802734375	-0.24701754760742187	0		5.977099609375	0.4098887939453125	0		-0.007577370166778565	5.92840673828125	0		
-0.018836614608764648	0.0010670119524002076	0		0.513234619140625	-2.48313037109375	0		-0.97181005859375	0.14427191162109376	0		-0.6061201171875	-2.43145849609375	0		2.140597900390625	-1.3962401123046875	0		3.7179931640625	-0.642642822265625	0		4.947828125	-0.2599116516113281	0		5.98566015625	0.39270819091796877	0		-0.006594707012176513	5.92754150390625	0		
0.003865015983581543	-0.0031291151046752928	0		0.5436456298828125	-2.501461669921875	0		-0.9771006469726562	0.14052461242675782	0		-0.5927651977539062	-2.453499267578125	0		2.15310595703125	-1.410356201171875	0		3.70654345703125	-0.6554522094726563	0		4.95577685546875	-0.24704747009277345	0		5.97257275390625	0.40185238647460936	0		-0.005667924880981445	5.92567333984375	0		
-0.019343748092651367	0.0013564369678497315	0		0.5272518920898438	-2.50409716796875	0		-0.9773671875	0.1406978759765625	0		-0.5992183227539063	-2.46024755859375	0		2.160460205078125	-1.432399658203125	0		3.719399658203125	-0.6456234130859375	0		4.9705859375	-0.24128788757324218	0		5.9771640625	0.39173095703125	0		-0.023673704147338867	5.931083984375	0		
0.06032984924316406	-7.033780217170716E-4	0		0.5497648315429687	-2.511319091796875	0		-0.9827247314453125	0.13694158935546874	0		-0.6456813354492188	-2.46540087890625	0		2.1698427734375	-1.450475830078125	0		3.71361328125	-0.6765213623046875	0		4.96338134765625	-0.23419869995117187	0		5.97175439453125	0.3837608642578125	0		0.011277539253234863	5.9356982421875	0		
-0.019978176116943358	0.0016300270557403564	0		0.5452842407226562	-2.516140380859375	0		-1.0021557006835937	0.1303907470703125	0		-0.6192991943359375	-2.479651611328125	0		2.1730322265625	-1.4794622802734374	0		3.759271240234375	-0.676187255859375	0		4.9699365234375	-0.24131491088867188	0		5.9804326171875	0.3835841369628906	0		0.015029681205749513	5.9297724609375	0		
0.0025960750579833982	-0.002584871053695679	0		0.5506553955078125	-2.5291142578125	0		-1.0175585327148438	0.12777448272705078	0		-0.63089501953125	-2.490337646484375	0		2.176477294921875	-1.489451416015625	0		3.719728515625	-0.6865733032226562	0		4.9785361328125	-0.24345748901367187	0		5.97108154296875	0.38368414306640625	0		-0.005257306098937989	5.92420361328125	0		
-0.02379788589477539	-0.0020673251152038574	0		0.5461341552734374	-2.532941650390625	0		-1.0230118408203126	0.12400212097167969	0		-0.6217633666992187	-2.51734326171875	0		2.1816650390625	-1.5144686279296875	0		3.730222412109375	-0.6927074584960937	0		4.98301171875	-0.25153312683105467	0		5.97555810546875	0.3745832824707031	0		0.014585204124450683	5.93002783203125	0		
-0.02116952133178711	0.00200940203666687	0		0.5404937744140625	-2.542755859375	0		-1.0183807983398439	0.12807171630859376	0		-0.696169189453125	-2.511091064453125	0		2.202894287109375	-1.534726806640625	0		3.730623779296875	-0.7026856079101562	0		4.9756806640625	-0.24442137145996093	0		5.9802705078125	0.3834908142089844	0		0.029454729080200196	5.940921875	0		
-0.01758792304992676	0.00506732177734375	0		0.564900146484375	-2.54802587890625	0		-1.039823974609375	0.12952799987792968	0		-0.6309028930664062	-2.5259541015625	0		2.2003544921875	-1.5376229248046875	0		3.756279052734375	-0.6940374145507813	0		4.98210595703125	-0.25150968933105466	0		5.97981494140625	0.38348696899414064	0		0.02911273193359375	5.94103955078125	0		
-0.022119848251342774	0.0022430930137634277	0		0.5493998413085938	-2.545694580078125	0		-1.0585335693359375	0.11493507385253907	0		-0.6446299438476563	-2.538630126953125	0		2.20340087890625	-1.5666046142578125	0		3.71354248046875	-0.7093522338867188	0		4.97673583984375	-0.24340873718261719	0		5.97419921875	0.3745721435546875	0		-0.001598356008529663	5.91960986328125	0		
3.1878501176834105E-4	-0.001994192957878113	0		0.6055384521484375	-2.567453369140625	0		-0.9860989990234375	0.10995635223388672	0		-0.6183666381835937	-2.55191748046875	0		2.208772216796875	-1.573617919921875	0		3.727016845703125	-0.71051025390625	0		4.9770068359375	-0.25838751220703127	0		5.96470751953125	0.37472796630859373	0		-0.0020066819190979004	5.91972021484375	0		
-0.02617096710205078	-0.00149543297290802	0		0.5520947875976563	-2.5615537109375	0		-1.0745650634765624	0.11240729522705079	0		-0.663977783203125	-2.557122314453125	0		2.22584814453125	-1.6008111572265624	0		3.73419580078125	-0.7315720825195312	0		4.9765107421875	-0.2583464660644531	0		5.956220703125	0.37487762451171874	0		-0.002423669099807739	5.91982470703125	0		
0.05639669799804688	3.4377700090408326E-4	0		0.5874436645507812	-2.57200634765625	0		-1.045156982421875	0.10406266784667968	0		-0.6665182495117188	-2.559986572265625	0		2.239134033203125	-1.6159471435546875	0		3.749945556640625	-0.7167577514648438	0		4.9801455078125	-0.25136231994628905	0		5.959619140625	0.365853271484375	0		0.012335624694824219	5.9306943359375	0		
-0.024004148483276366	0.002647823095321655	0		0.558	-2.571480712890625	0		-1.090500244140625	0.10984442901611328	0		-0.6730554809570313	-2.565798583984375	0		2.23358935546875	-1.6227987060546876	0		3.74224169921875	-0.7345905151367188	0		4.99070166015625	-0.2524805755615234	0		5.959197265625	0.3658935546875	0		0.011960489273071289	5.93078466796875	0		
0.05154462432861328	-0.0034230489730834963	0		0.6074591064453125	-2.582159912109375	0		-1.037917724609375	0.10612945556640625	0		-0.64763916015625	-2.57910498046875	0		2.2291064453125	-1.6296695556640626	0		3.76397412109375	-0.7278674926757812	0		4.99033349609375	-0.252430908203125	0		5.95497021484375	0.37499658203125	0		-0.003532689094543457	5.920095703125	0		
